<svg width="154" height="139" viewBox="0 0 154 139" fill="none" xmlns="http://www.w3.org/2000/svg">
<g id="Group 51">
<path id="Rectangle 158" d="M40.8052 64.9999C40.8052 74.9411 48.864 82.9999 58.8052 82.9999L85.8052 82.9999C88.5666 82.9999 90.8052 80.7614 90.8052 77.9999L90.8052 43.9999C90.8052 38.4771 86.328 33.9999 80.8052 33.9999L45.8052 33.9999C43.0437 33.9999 40.8052 36.2385 40.8052 38.9999L40.8052 64.9999Z" fill="#FFF1DA"/>
<g id="plane">
<g id="Group">
<path id="Vector" d="M89.3298 78.9465C87.9742 79.2087 86.6573 79.7368 85.4607 80.4976C82.3429 82.4283 80.5506 85.2786 81.4578 86.8634C82.3651 88.4481 85.6281 88.1667 88.7459 86.2359C89.9591 85.5042 91.0329 84.552 91.9015 83.4384C92.3043 82.8998 92.3692 82.2131 92.0672 81.6874L90.8886 79.6287C90.5887 79.1014 89.977 78.834 89.3298 78.9465Z" fill="#D5D6DB"/>
<path id="Vector_2" d="M81.4591 51.952C80.4761 52.1423 79.5211 52.5254 78.6534 53.0771C76.3931 54.4768 75.0928 56.5435 75.7501 57.6917C76.4074 58.8398 78.7744 58.6355 81.0344 57.236C81.914 56.7051 82.6926 56.0143 83.3225 55.2068C83.6142 54.8163 83.6611 54.3188 83.4422 53.9377L82.5888 52.447C82.3716 52.0648 81.9284 51.8706 81.4591 51.952Z" fill="#D5D6DB"/>
<path id="Vector_3" d="M68.6391 52.6939C68.4194 52.6612 68.1862 52.7125 67.985 52.8373L62.6777 56.1217C62.2337 56.3955 62.0616 56.9471 62.2937 57.3538C62.3468 57.447 62.4188 57.5276 62.5058 57.5908L75.8113 67.3177L93.5087 56.3659L68.6391 52.6939Z" fill="#029BC5"/>
<path id="Vector_4" d="M125.079 52.5382L76.6503 82.6716L47.9137 93.5538L33.2213 96.058L31.566 93.1403L112.302 43.9351C114.708 42.462 117.398 41.602 120.1 41.4423C121.283 41.379 122.453 41.4624 123.583 41.6902C124.585 41.884 125.537 42.2221 126.411 42.6946C127.387 43.2293 129.233 43.354 129.843 44.3709C129.845 44.3694 131.311 48.9895 125.079 52.5382Z" fill="#E1E6E9"/>
<path id="Vector_5" d="M77.0582 77.8899L56.4092 111.706C56.1519 112.182 56.3149 112.732 56.7729 112.933C57.0539 113.057 57.3956 113.024 57.6808 112.847L63.0023 109.538C64.0258 108.901 64.9288 108.078 65.6557 107.119L105.918 59.1403L77.0582 77.8899Z" fill="#029BC5"/>
<path id="Vector_6" d="M24.1397 76.8922C23.7884 76.7587 23.3731 76.8069 23.0246 77.0215L18.6498 79.716C18.0537 80.0829 17.8236 80.8204 18.1358 81.3636C18.1953 81.4669 18.272 81.5586 18.3635 81.6352L30.8494 92.1107L43.7389 84.3349L24.1397 76.8922Z" fill="#029BC5"/>
<path id="Vector_7" d="M34.8399 93.6636L28.2691 103.078C28.1727 103.214 28.1979 103.389 28.3254 103.469C28.4173 103.527 28.5417 103.522 28.642 103.455L32.7545 100.897C32.7865 100.877 32.8153 100.852 32.8391 100.823L42.4631 88.9263L34.8399 93.6636Z" fill="#029BC5"/>
<path id="Vector_8" d="M122.894 41.9003C121.735 41.6693 120.535 41.586 119.321 41.652C118.159 43.3007 117.427 45.1731 117.197 47.0826C117.183 47.4673 117.491 47.7555 117.884 47.7263C118.006 47.717 118.127 47.6774 118.236 47.6109L125.796 42.9213C124.899 42.4404 123.922 42.0967 122.894 41.9003Z" fill="#029BC5"/>
<path id="Vector_9" d="M106.332 50.5967L111.227 47.6284L115.926 55.6661L111.03 58.6344L106.332 50.5967Z" fill="#D5D6DB"/>
<g id="Group_2">
<path id="Vector_10" d="M103.192 53.8409C102.601 54.1998 102.373 54.9236 102.683 55.4575L103.185 56.3224C103.514 56.8437 104.251 56.9608 104.831 56.5839C105.383 56.2249 105.597 55.5429 105.322 55.0231L104.82 54.1582C104.511 53.6247 103.782 53.4826 103.192 53.8409Z" fill="#3A556A"/>
<path id="Vector_11" d="M98.7274 56.6134C98.137 56.9723 97.909 57.6961 98.2186 58.23L98.7201 59.0949C99.0494 59.6162 99.7863 59.7333 100.366 59.3563C100.918 58.9974 101.133 58.3154 100.857 57.7955L100.356 56.9306C100.046 56.3974 99.3175 56.2552 98.7274 56.6134Z" fill="#3A556A"/>
<path id="Vector_12" d="M94.2615 59.3867C93.6718 59.7461 93.4446 60.4691 93.754 61.0025L94.2555 61.8674C94.5847 62.3887 95.3217 62.5058 95.9016 62.1289C96.4535 61.7699 96.6683 61.0879 96.3929 60.5681L95.8913 59.7032C95.5818 59.1694 94.8522 59.0277 94.2615 59.3867Z" fill="#3A556A"/>
<path id="Vector_13" d="M89.7973 62.159C89.2076 62.5185 88.9804 63.2415 89.2897 63.7749L89.7913 64.6398C90.1205 65.1611 90.8574 65.2782 91.4374 64.9013C91.9893 64.5423 92.2041 63.8603 91.9286 63.3404L91.4271 62.4755C91.1173 61.9418 90.3877 61.8001 89.7973 62.159Z" fill="#3A556A"/>
<path id="Vector_14" d="M85.3332 64.9316C84.7432 65.2911 84.5159 66.0143 84.8254 66.5478L85.3272 67.4129C85.6365 67.9462 86.3657 68.0878 86.9559 67.7291C87.5461 67.3704 87.7737 66.6473 87.4644 66.114L86.9626 65.249C86.654 64.7152 85.9251 64.5729 85.3345 64.9309C85.334 64.9312 85.3337 64.9313 85.3332 64.9316Z" fill="#3A556A"/>
<path id="Vector_15" d="M80.8689 67.7041C80.2789 68.0636 80.0516 68.7867 80.361 69.3203L80.8628 70.1854C81.1722 70.7187 81.9014 70.8602 82.4915 70.5016C83.0817 70.1429 83.3094 69.4198 83 68.8865L82.4982 68.0214C82.1896 67.4877 81.4607 67.3453 80.8701 67.7033C80.8696 67.7036 80.8691 67.7039 80.8689 67.7041Z" fill="#3A556A"/>
<path id="Vector_16" d="M76.4043 70.4766C75.8143 70.8361 75.587 71.5593 75.8964 72.0928L76.3982 72.9578C76.7083 73.4907 77.4378 73.6311 78.0273 73.2719C78.6159 72.9133 78.843 72.1918 78.5351 71.6592L78.0333 70.7941C77.7241 70.2604 76.9949 70.1183 76.4043 70.4766Z" fill="#3A556A"/>
<path id="Vector_17" d="M71.9397 73.2491C71.3497 73.6086 71.1224 74.3318 71.4318 74.8653L71.9336 75.7304C72.2437 76.2633 72.9732 76.4037 73.5627 76.0445C74.1513 75.6859 74.3784 74.9643 74.0705 74.4317L73.5687 73.5666C73.2595 73.0329 72.5303 72.8908 71.9397 73.2491Z" fill="#3A556A"/>
<path id="Vector_18" d="M67.4753 76.0215C66.8853 76.381 66.658 77.1042 66.9675 77.6377L67.4693 78.5028C67.7793 79.0356 68.5089 79.176 69.0984 78.8168C69.6869 78.4583 69.9141 77.7367 69.6062 77.2041L69.1044 76.339C68.7949 75.8055 68.0657 75.6633 67.4753 76.0215Z" fill="#3A556A"/>
<path id="Vector_19" d="M63.0095 78.7948C62.4193 79.1535 62.1917 79.8765 62.501 80.4098L62.5017 80.411L63.0034 81.2761C63.3135 81.8089 64.043 81.9494 64.6326 81.5902C65.2211 81.2316 65.4483 80.51 65.1403 79.9774L64.6386 79.1123C64.3294 78.5786 63.6002 78.4364 63.0095 78.7948Z" fill="#3A556A"/>
<path id="Vector_20" d="M58.5464 81.5665C57.9562 81.9251 57.7285 82.6482 58.0379 83.1815L58.0385 83.1826L58.5403 84.0477C58.8504 84.5805 59.5799 84.721 60.1695 84.3618C60.758 84.0032 60.9852 83.2816 60.6773 82.749L60.1755 81.8839C59.866 81.3504 59.1368 81.2083 58.5464 81.5665Z" fill="#3A556A"/>
</g>
</g>
</g>
</g>
</svg>
